<svg width="555" height="564" viewBox="0 0 555 564" fill="none" xmlns="http://www.w3.org/2000/svg">
<g filter="url(#filter0_d)">
<g opacity="0.2">
<g opacity="0.2">
<path opacity="0.2" d="M273.95 24.6205C225.87 24.5742 178.644 37.3238 137.12 61.5605C95.8952 85.5843 61.9387 120.315 38.85 162.07C15.9346 203.548 4.87151 250.531 6.87163 297.876C8.87174 345.221 23.858 391.103 50.19 430.5L51.33 431.99L53.6 435.52C65.17 460.3 22.12 516.891 22.12 516.891L114.85 498.3L113.71 497.18C165.061 534.74 228.002 553.012 291.483 548.788C354.964 544.564 414.928 518.113 460.85 474.081C490.927 445.119 513.636 409.381 527.08 369.85C540.443 330.445 544.091 288.394 537.713 247.276C531.336 206.157 515.122 167.187 490.45 133.68C465.601 99.8568 433.094 72.4006 395.59 53.5605C357.851 34.57 316.197 24.6599 273.95 24.6205Z" fill="#F57F20"/>
</g>
</g>
<path d="M273.95 6.00049C225.87 5.95416 178.644 18.7038 137.12 42.9405C95.897 66.971 61.9413 101.704 38.85 143.46C15.9355 184.937 4.87285 231.918 6.87296 279.261C8.87308 326.604 23.8589 372.485 50.19 411.88L51.33 413.371L53.6 416.901C65.17 441.671 22.12 498.301 22.12 498.301L114.85 479.681L113.71 478.561C165.061 516.121 228.002 534.392 291.483 530.168C354.964 525.944 414.928 499.493 460.85 455.46C490.931 426.491 513.64 390.741 527.08 351.201C540.438 311.799 544.083 269.754 537.706 228.641C531.328 187.528 515.117 148.564 490.45 115.06C465.596 81.2421 433.09 53.7869 395.59 34.9405C357.851 15.95 316.197 6.03988 273.95 6.00049Z" fill="#F0EFEF"/>
<path d="M53.79 437.01C46.5432 458.935 35.7131 479.507 21.74 497.891L36.16 494.891C46.45 477.041 59.1 452.09 53.79 437.01Z" fill="white"/>
<path d="M273.95 24.6205C342.932 24.5482 409.318 50.9165 459.45 98.3005C509.057 145.164 538.25 209.653 540.73 277.85V268.54C540.682 233.945 533.734 199.707 520.293 167.829C506.852 135.952 487.187 107.076 462.45 82.8905C411.864 33.5907 344.021 6 273.385 6C202.749 6 134.907 33.5907 84.32 82.8905C59.5768 107.069 39.9053 135.94 26.457 167.814C13.0088 199.689 6.05412 233.925 6 268.52V279.3C8.10211 210.645 37.2868 145.61 87.18 98.4005C137.616 50.6787 204.516 24.251 273.95 24.6205Z" fill="white"/>
<path d="M204.36 292.35C209.053 292.262 213.615 290.789 217.474 288.117C221.334 285.446 224.318 281.694 226.053 277.332C227.787 272.971 228.196 268.194 227.226 263.602C226.256 259.009 223.952 254.805 220.602 251.517C217.252 248.23 213.006 246.004 208.396 245.121C203.786 244.237 199.018 244.735 194.69 246.551C190.362 248.367 186.666 251.421 184.067 255.329C181.468 259.238 180.081 263.827 180.08 268.52C180.141 274.9 182.733 280.994 187.286 285.463C191.839 289.932 197.981 292.409 204.36 292.35Z" fill="black"/>
<path d="M273.95 292.35C278.643 292.264 283.207 290.793 287.067 288.122C290.928 285.452 293.913 281.7 295.65 277.339C297.386 272.978 297.796 268.201 296.827 263.608C295.859 259.014 293.555 254.81 290.206 251.521C286.856 248.232 282.61 246.006 278 245.121C273.389 244.237 268.621 244.734 264.292 246.55C259.963 248.365 256.267 251.419 253.668 255.328C251.068 259.237 249.681 263.826 249.68 268.52C249.741 274.898 252.331 280.991 256.882 285.459C261.433 289.928 267.572 292.406 273.95 292.35Z" fill="black"/>
<path d="M346.2 292.35C350.893 292.264 355.457 290.793 359.317 288.122C363.178 285.452 366.163 281.7 367.9 277.339C369.636 272.978 370.046 268.201 369.077 263.608C368.109 259.014 365.805 254.81 362.456 251.521C359.106 248.232 354.86 246.006 350.25 245.121C345.639 244.237 340.871 244.734 336.542 246.55C332.213 248.365 328.517 251.419 325.918 255.328C323.318 259.237 321.931 263.826 321.93 268.52C321.991 274.898 324.581 280.991 329.132 285.459C333.683 289.928 339.822 292.406 346.2 292.35Z" fill="black"/>
<path d="M273.19 400.89C347.65 400.89 408.02 341.63 408.02 268.52C408.02 195.41 347.65 136.14 273.19 136.14C198.73 136.14 138.37 195.41 138.37 268.52C138.37 341.63 198.73 400.89 273.19 400.89Z" stroke="#1D6792" stroke-width="20" stroke-miterlimit="10"/>
<path d="M539.35 515.301L376.03 354.781L360.09 370.421L523.45 530.96L539.35 515.301Z" fill="#1D6792"/>
</g>
<defs>
<filter id="filter0_d" x="0" y="0" width="554.766" height="563.385" filterUnits="userSpaceOnUse" color-interpolation-filters="sRGB">
<feFlood flood-opacity="0" result="BackgroundImageFix"/>
<feColorMatrix in="SourceAlpha" type="matrix" values="0 0 0 0 0 0 0 0 0 0 0 0 0 0 0 0 0 0 127 0"/>
<feOffset dx="4" dy="4"/>
<feGaussianBlur stdDeviation="5"/>
<feColorMatrix type="matrix" values="0 0 0 0 0 0 0 0 0 0 0 0 0 0 0 0 0 0 0.05 0"/>
<feBlend mode="normal" in2="BackgroundImageFix" result="effect1_dropShadow"/>
<feBlend mode="normal" in="SourceGraphic" in2="effect1_dropShadow" result="shape"/>
</filter>
</defs>
</svg>
